<?xml version="1.0" encoding="UTF-8"?>
<svg width="18px" height="18px" viewBox="0 0 18 18" version="1.1" xmlns="http://www.w3.org/2000/svg" xmlns:xlink="http://www.w3.org/1999/xlink">
    <!-- Generator: Sketch 39.1 (31720) - http://www.bohemiancoding.com/sketch -->
    <title>diu raw 0002</title>
    <desc>Created with Sketch.</desc>
    <defs/>
    <g id="Page-1" stroke="none" stroke-width="1" fill="none" fill-rule="evenodd">
        <g id="Homepage-Dark-Copy-6" transform="translate(-283.000000, -535.000000)">
            <g id="Group-21" transform="translate(257.000000, 268.000000)">
                <g id="Group-20" transform="translate(0.000000, 181.000000)">
                    <g id="Group-14" transform="translate(0.000000, 55.000000)">
                        <g id="Group-10" transform="translate(13.909871, 13.960784)">
                            <g id="diu-raw-0002" transform="translate(9.935622, 14.625584)">
                                <g id="Group">
                                    <g id="_x31_28px_boxes">
                                        <rect id="Rectangle-path" x="0" y="0" width="23.1831187" height="23.2679739"/>
                                    </g>
                                    <g id="Production" transform="translate(3.079008, 3.090278)" fill="#565D64">
                                        <g id="Group">
                                            <path d="M8.51255141,0 C3.81117794,0 0,3.82512766 0,8.54370915 C0,13.2622906 3.81117794,17.0874183 8.51255141,17.0874183 C13.2139249,17.0874183 17.0251028,13.2622906 17.0251028,8.54370915 C17.0251028,3.82512766 13.2139249,0 8.51255141,0 L8.51255141,0 Z M9.41814199,15.2983656 L9.41814199,12.5428922 L7.60696084,12.5428922 L7.60696084,15.2983656 C4.58074881,14.8934483 2.18596887,12.489903 1.78252827,9.45261438 L4.52795288,9.45261438 L4.52795288,7.63480392 L1.78252827,7.63480392 C2.18596887,4.59751532 4.58074881,2.19396998 7.60696084,1.7890527 L7.60696084,4.54452614 L9.41814199,4.54452614 L9.41814199,1.7890527 C12.444354,2.19396998 14.839134,4.59751532 15.2425746,7.63480392 L12.4971499,7.63480392 L12.4971499,9.45261438 L15.2425746,9.45261438 C14.839134,12.489903 12.444354,14.8934483 9.41814199,15.2983656 L9.41814199,15.2983656 Z" id="Shape"/>
                                            <ellipse id="Oval" cx="8.51255141" cy="8.54370915" rx="1.26782681" ry="1.27246732"/>
                                        </g>
                                    </g>
                                </g>
                            </g>
                        </g>
                    </g>
                </g>
            </g>
        </g>
    </g>
</svg>