<?xml version="1.0" encoding="UTF-8"?>
<svg width="16px" height="17px" viewBox="0 0 16 17" version="1.1" xmlns="http://www.w3.org/2000/svg" xmlns:xlink="http://www.w3.org/1999/xlink">
    <!-- Generator: Sketch 39.1 (31720) - http://www.bohemiancoding.com/sketch -->
    <title>diu raw 0210</title>
    <desc>Created with Sketch.</desc>
    <defs/>
    <g id="Page-1" stroke="none" stroke-width="1" fill="none" fill-rule="evenodd">
        <g id="Homepage-Dark-Copy-6" transform="translate(-778.000000, -536.000000)">
            <g id="Group-21" transform="translate(257.000000, 268.000000)">
                <g id="Group-20" transform="translate(0.000000, 181.000000)">
                    <g id="Group-14" transform="translate(0.000000, 55.000000)">
                        <g id="Group-11" transform="translate(508.041488, 13.960784)">
                            <g id="diu-raw-0210" transform="translate(9.273247, 14.625584)">
                                <g id="Group">
                                    <g id="_x31_28px_boxes">
                                        <rect id="Rectangle-path" x="0" y="0" width="23.1831187" height="23.2679739"/>
                                    </g>
                                    <g id="Production" transform="translate(3.984599, 3.635621)" fill="#565D64">
                                        <g id="Group">
                                            <path d="M13.846987,0.981908497 C12.2276462,-0.303792484 10.8613998,0.0201413399 10.0628319,1.29080903 C11.8790482,1.90953717 13.3909316,3.19514726 14.3085847,4.85535355 C14.4752496,4.7060386 14.630667,4.52196712 14.7717761,4.30012153 C15.5860107,3.01971038 14.9609359,1.8660915 13.846987,0.981908497 L13.846987,0.981908497 Z" id="Shape"/>
                                            <path d="M5.14451517,1.29313583 C4.25167531,-0.20264951 2.71548579,-0.114067606 1.35815041,0.963348652 C-0.0794021817,2.10457006 -0.43301719,3.65810723 0.914863823,4.83822978 C1.83235386,3.18834865 3.33749973,1.91062786 5.14451517,1.29313583 L5.14451517,1.29313583 Z" id="Shape"/>
                                            <path d="M13.4293105,5.31385989 C12.2850787,3.26236989 10.101392,1.87981597 7.60699706,1.87981597 C3.93466427,1.87981597 0.939133651,4.87863971 0.939133651,8.57206699 C0.939133651,10.3144201 1.60620978,11.9031501 2.69721097,13.095143 C2.03663698,13.9964134 2.24399911,13.7134894 1.68302197,14.4787876 C1.4052049,14.8578011 1.48612847,15.3911103 1.86379596,15.6699442 C2.24153591,15.9488327 2.77277345,15.8675039 3.05060864,15.4885268 C3.50548678,14.8679263 3.29852311,15.1502686 3.9975847,14.196627 C6.18503874,15.6156099 9.01207517,15.6264622 11.2163189,14.1966634 C11.9946015,15.2582647 11.7128361,14.8739069 12.1634217,15.4885631 C12.4414018,15.8677947 12.9728023,15.9486328 13.3502344,15.6699079 C13.7278657,15.3910194 13.8087349,14.8577102 13.5309178,14.4787512 C12.9760262,13.7218331 13.1593178,13.9718366 12.5166383,13.0952339 C13.6076757,11.903241 14.2747518,10.3144201 14.2747518,8.57206699 C14.2747518,7.38994485 13.9673944,6.27871732 13.4293105,5.31385989 L13.4293105,5.31385989 Z M7.60699706,13.5604297 C4.86648075,13.5604297 2.63689864,11.3226505 2.63689864,8.57206699 C2.63689864,5.82151981 4.86648075,3.58379514 7.60699706,3.58379514 C10.347459,3.58379514 12.5770049,5.82151981 12.5770049,8.57206699 C12.5770049,11.3226505 10.347459,13.5604297 7.60699706,13.5604297 L7.60699706,13.5604297 Z" id="Shape"/>
                                            <path d="M8.09348032,5.42714583 C8.04271291,4.83570302 7.17209624,4.83237643 7.12049569,5.42714583 L6.8664232,8.35771078 L5.49128391,11.0446528 C5.22302987,11.5676732 5.95201217,12.0307786 6.30720291,11.5588386 L8.24993015,8.97725694 L8.25081762,8.97607537 C8.3346572,8.86435274 8.37923037,8.72234538 8.36617175,8.57206699 L8.09348032,5.42714583 L8.09348032,5.42714583 Z" id="Shape"/>
                                        </g>
                                    </g>
                                </g>
                            </g>
                        </g>
                    </g>
                </g>
            </g>
        </g>
    </g>
</svg>