<?xml version="1.0" encoding="UTF-8"?>
<svg width="16px" height="17px" viewBox="0 0 16 17" version="1.1" xmlns="http://www.w3.org/2000/svg" xmlns:xlink="http://www.w3.org/1999/xlink">
    <!-- Generator: Sketch 39.1 (31720) - http://www.bohemiancoding.com/sketch -->
    <title>diu raw 0397</title>
    <desc>Created with Sketch.</desc>
    <defs/>
    <g id="Page-1" stroke="none" stroke-width="1" fill="none" fill-rule="evenodd">
        <g id="Homepage-Dark-Copy-6" transform="translate(-915.000000, -536.000000)">
            <g id="Group-21" transform="translate(257.000000, 268.000000)">
                <g id="Group-20" transform="translate(0.000000, 181.000000)">
                    <g id="Group-14" transform="translate(0.000000, 55.000000)">
                        <g id="Group-12" transform="translate(645.153076, 13.960784)">
                            <g id="diu-raw-0397" transform="translate(9.273247, 14.625584)">
                                <g id="Group">
                                    <g id="_x31_28px_boxes">
                                        <rect id="Rectangle-path" x="0" y="0" width="23.1831187" height="23.2679739"/>
                                    </g>
                                    <g id="Production" transform="translate(3.984599, 3.453840)" fill="#565D64">
                                        <g id="Group">
                                            <path d="M4.02266956,4.02795895 C4.43049322,4.02795895 4.76107001,3.69759007 4.76107001,3.28731025 L4.76107001,0.884964665 C4.76107001,0.474721201 4.43049322,0.145279412 4.02266956,0.144352328 C3.6162224,0.145279412 3.28568184,0.474721201 3.28426912,0.884964665 L3.28426912,3.28731025 C3.28426912,3.69759007 3.6162224,4.02795895 4.02266956,4.02795895 L4.02266956,4.02795895 Z" id="Shape"/>
                                            <path d="M11.1502651,4.02890421 C11.558125,4.02746814 11.8882127,3.69617218 11.8882127,3.2868558 L11.8882127,0.884510212 C11.8882127,0.476084559 11.558125,0.144788603 11.1502651,0.144788603 C10.7437998,0.144788603 10.4132774,0.476084559 10.4118646,0.884510212 L10.4118646,3.2868558 C10.4118646,3.69617218 10.7424414,4.02890421 11.1502651,4.02890421 L11.1502651,4.02890421 Z" id="Shape"/>
                                            <path d="M14.6216654,1.90646507 L12.7062508,1.90646507 L12.7062508,3.28636499 C12.7062508,4.14991585 12.0097792,4.84806413 11.1507541,4.85086356 C10.288487,4.85086356 9.59386278,4.14849796 9.59386278,3.28636499 L9.59386278,1.90646507 L5.58052081,1.90646507 L5.58052081,3.2868558 C5.5786734,4.15178819 4.88169467,4.84895486 4.02218054,4.85037275 C3.16413347,4.84895486 2.46530734,4.15315155 2.46436552,3.2868558 L2.46436552,1.90646507 L0.592256237,1.90646507 C0.269721097,1.90646507 0.0121168019,2.17179269 0.0121168019,2.48965502 L0.0121168019,15.6332426 C0.0121168019,15.9515413 0.272039409,16.2159418 0.592256237,16.2159418 L14.6216654,16.2159418 C14.9355794,16.2159418 15.2018049,15.9629571 15.2018049,15.6332426 L15.2018049,2.48965502 C15.2018049,2.16224918 14.938441,1.90646507 14.6216654,1.90646507 L14.6216654,1.90646507 Z M14.0420512,15.0509616 L1.17239567,15.0509616 L1.17239567,6.44708292 L14.0420512,6.44708292 L14.0420512,15.0509616 L14.0420512,15.0509616 Z" id="Shape"/>
                                            <rect id="Rectangle-path" x="6.28722558" y="7.84345221" width="2.63947052" height="1.38733476"/>
                                            <rect id="Rectangle-path" x="9.97872067" y="7.84345221" width="2.63943429" height="1.38733476"/>
                                            <rect id="Rectangle-path" x="2.59576671" y="10.0759052" width="2.63943429" height="1.38728023"/>
                                            <rect id="Rectangle-path" x="6.28722558" y="10.0759052" width="2.63947052" height="1.38728023"/>
                                            <rect id="Rectangle-path" x="9.97872067" y="10.0759052" width="2.63943429" height="1.38728023"/>
                                            <rect id="Rectangle-path" x="2.59576671" y="12.3083583" width="2.63943429" height="1.38728023"/>
                                            <rect id="Rectangle-path" x="6.28722558" y="12.3083583" width="2.63947052" height="1.38728023"/>
                                            <rect id="Rectangle-path" x="9.97872067" y="12.3083583" width="2.63943429" height="1.38728023"/>
                                        </g>
                                    </g>
                                </g>
                            </g>
                        </g>
                    </g>
                </g>
            </g>
        </g>
    </g>
</svg>