<?xml version="1.0" encoding="UTF-8"?>
<svg width="19px" height="15px" viewBox="0 0 19 15" version="1.1" xmlns="http://www.w3.org/2000/svg" xmlns:xlink="http://www.w3.org/1999/xlink">
    <!-- Generator: Sketch 39.1 (31720) - http://www.bohemiancoding.com/sketch -->
    <title>diu raw 0124</title>
    <desc>Created with Sketch.</desc>
    <defs/>
    <g id="Page-1" stroke="none" stroke-width="1" fill="none" fill-rule="evenodd">
        <g id="Homepage-Dark-Copy-6" transform="translate(-641.000000, -537.000000)">
            <g id="Group-21" transform="translate(257.000000, 268.000000)">
                <g id="Group-20" transform="translate(0.000000, 181.000000)">
                    <g id="Group-14" transform="translate(0.000000, 55.000000)">
                        <g id="Group-9" transform="translate(370.929900, 13.960784)">
                            <g id="diu-raw-0124" transform="translate(11.260372, 14.625584)">
                                <g id="Group">
                                    <g id="_x31_28px_boxes">
                                        <rect id="Rectangle-path" x="0" y="0" width="23.1831187" height="23.2679739"/>
                                    </g>
                                    <g id="Production" transform="translate(2.354535, 4.726307)" fill="#565D64">
                                        <g id="Group">
                                            <path d="M15.9208076,8.68647998 C14.8874744,8.29123346 13.967666,7.94746732 13.8628168,7.55305699 C13.7641255,7.18189645 14.0184697,6.95903288 14.3785506,6.45420874 C14.9613344,5.66507904 15.3245848,4.5925527 15.3245848,3.51015564 C15.3245848,1.39882333 13.944827,0.0525529003 12.2427333,0.0525529003 C11.5332031,0.0525529003 10.880218,0.287177696 10.3592861,0.71296344 C11.2042202,1.62279575 11.6695488,2.8980625 11.6695488,4.30381168 C11.6695488,5.72699367 11.2032059,7.17600674 10.3897682,8.280981 C10.3072327,8.39650286 10.2308371,8.49795486 10.1633162,8.58768199 C10.1584804,8.59411703 10.1535721,8.60064297 10.1485913,8.6072598 C10.5288307,8.79800266 11.1501564,9.0355723 11.6024446,9.20848243 L11.6798363,9.23807639 C12.2547233,9.45797692 13.1013962,9.81614011 13.8138968,10.3853147 C14.387842,10.8438029 14.7363313,11.3315396 14.9418279,11.7935362 L18.4262869,11.7935362 C18.4262869,10.9055357 18.656977,9.73299346 15.9208076,8.68647998 L15.9208076,8.68647998 Z" id="Shape"/>
                                            <path d="M11.3089427,10.2148041 C10.1289763,9.76345997 9.07861797,9.3709038 8.95888078,8.9205049 C8.8462072,8.49671875 9.13664821,8.24218893 9.54782256,7.66574306 C10.2133048,6.76459988 10.6281197,5.53988644 10.6281197,4.30381168 C10.6281197,1.89284967 9.05253696,0.355527369 7.10888602,0.355527369 C5.16523508,0.355527369 3.58965237,1.89284967 3.58965237,4.30381168 C3.58965237,5.53988644 4.00446719,6.76459988 4.66994948,7.66574306 C5.08114194,8.24218893 5.37156484,8.49671875 5.25889126,8.9205049 C5.13915407,9.3709038 4.08879579,9.76345997 2.90882938,10.2148041 C-0.184595583,11.3980351 0.047760847,12.710876 0.047760847,13.7628066 L14.1700112,13.7628066 C14.1700112,12.7579573 14.4371423,11.4113415 11.3089427,10.2148041 L11.3089427,10.2148041 Z" id="Shape"/>
                                        </g>
                                    </g>
                                </g>
                            </g>
                        </g>
                    </g>
                </g>
            </g>
        </g>
    </g>
</svg>